<svg width="119" height="119" viewBox="0 0 119 119" fill="none" xmlns="http://www.w3.org/2000/svg">
<g filter="url(#filter0_d_247_579)">
<circle cx="59.5" cy="55.5" r="55.5" fill="#DBDBDB"/>
<path d="M26 57.8491C26 57.8491 29.2671 25 58.6711 25C88.075 25 91.3422 57.8491 91.3422 57.8491" stroke="white" stroke-width="8" stroke-linecap="round"/>
<path d="M48.808 48.2191V60.5478" stroke="white" stroke-width="8" stroke-linecap="round"/>
<path d="M47 80C56.3908 78.6602 61.4152 78.6731 70 80" stroke="white" stroke-width="8" stroke-linecap="round"/>
<path d="M68.5341 48.2191V60.5478" stroke="white" stroke-width="8" stroke-linecap="round"/>
<path d="M34.0286 64C33.9203 65 34.0611 67 35.4904 67C36.9197 67 37.1145 65 36.9521 64" stroke="white" stroke-linecap="round"/>
<path d="M36.0286 56C35.9203 57 36.0611 59 37.4904 59C38.9197 59 39.1145 57 38.9521 56" stroke="white" stroke-linecap="round"/>
</g>
<defs>
<filter id="filter0_d_247_579" x="0" y="0" width="119" height="119" filterUnits="userSpaceOnUse" color-interpolation-filters="sRGB">
<feFlood flood-opacity="0" result="BackgroundImageFix"/>
<feColorMatrix in="SourceAlpha" type="matrix" values="0 0 0 0 0 0 0 0 0 0 0 0 0 0 0 0 0 0 127 0" result="hardAlpha"/>
<feOffset dy="4"/>
<feGaussianBlur stdDeviation="2"/>
<feComposite in2="hardAlpha" operator="out"/>
<feColorMatrix type="matrix" values="0 0 0 0 0 0 0 0 0 0 0 0 0 0 0 0 0 0 0.25 0"/>
<feBlend mode="normal" in2="BackgroundImageFix" result="effect1_dropShadow_247_579"/>
<feBlend mode="normal" in="SourceGraphic" in2="effect1_dropShadow_247_579" result="shape"/>
</filter>
</defs>
</svg>
