<svg width="73" height="73" viewBox="0 0 73 73" fill="none" xmlns="http://www.w3.org/2000/svg">
<circle cx="36.3478" cy="36.3478" r="36.3478" fill="#F2F1F1"/>
<path d="M51.2174 36.6898C51.2174 35.6896 51.1287 34.7401 50.9768 33.8159H36.6707V39.5257H44.8619C44.4947 41.3995 43.4186 42.982 41.8234 44.0581V47.8562H46.7103C49.5715 45.2102 51.2174 41.3108 51.2174 36.6898Z" fill="#4285F4"/>
<path d="M36.6707 51.5402C40.7726 51.5402 44.2036 50.1729 46.7103 47.8561L41.8234 44.058C40.4561 44.9695 38.7216 45.5266 36.6707 45.5266C32.708 45.5266 29.353 42.8553 28.1503 39.2471H23.1115V43.1591C25.6055 48.122 30.733 51.5402 36.6707 51.5402Z" fill="#34A853"/>
<path d="M28.1503 39.2471C27.8338 38.3355 27.6692 37.3607 27.6692 36.3479C27.6692 35.335 27.8464 34.3602 28.1503 33.4487V29.5366H23.1115C22.0733 31.5876 21.4783 33.8918 21.4783 36.3479C21.4783 38.804 22.0733 41.1082 23.1115 43.1591L28.1503 39.2471Z" fill="#FBBC05"/>
<path d="M36.6707 27.1692C38.9115 27.1692 40.9119 27.9415 42.4944 29.448L46.8242 25.1182C44.2036 22.6621 40.7726 21.1555 36.6707 21.1555C30.733 21.1555 25.6055 24.5738 23.1115 29.5367L28.1503 33.4487C29.353 29.8405 32.708 27.1692 36.6707 27.1692Z" fill="#EA4335"/>
</svg>
