<svg width="73" height="73" viewBox="0 0 73 73" fill="none" xmlns="http://www.w3.org/2000/svg">
<circle cx="36.3478" cy="36.3478" r="36.3478" fill="#FFE927"/>
<path d="M54.5217 35.5218C54.5287 37.7024 53.906 39.8536 52.7043 41.8C51.2796 44.1325 49.0892 46.0943 46.3787 47.4658C43.6682 48.8373 40.5445 49.5642 37.3575 49.5652C34.6923 49.5709 32.0631 49.0614 29.6841 48.0783L18.174 51.2174L22.0107 41.8C20.809 39.8536 20.1863 37.7024 20.1933 35.5218C20.1945 32.9142 21.083 30.3585 22.7593 28.1408C24.4355 25.9231 26.8333 24.131 29.6841 22.9653C32.0631 21.9821 34.6923 21.4726 37.3575 21.4783H38.3672C42.5761 21.6683 46.5515 23.1218 49.5323 25.5606C52.513 27.9994 54.2895 31.252 54.5217 34.6957V35.5218Z" fill="black"/>
</svg>
