<svg width="83" height="83" viewBox="0 0 83 83" fill="none" xmlns="http://www.w3.org/2000/svg">
<g filter="url(#filter0_d_13_3854)">
<circle cx="41.3478" cy="41.3478" r="36.3478" fill="#FFE927"/>
<path d="M59.5217 40.5217C59.5287 42.7024 58.906 44.8535 57.7043 46.8C56.2796 49.1324 54.0892 51.0943 51.3787 52.4657C48.6682 53.8372 45.5445 54.5642 42.3575 54.5652C39.6923 54.5709 37.0631 54.0614 34.6841 53.0782L23.174 56.2174L27.0107 46.8C25.809 44.8535 25.1863 42.7024 25.1933 40.5217C25.1945 37.9142 26.083 35.3585 27.7593 33.1408C29.4355 30.923 31.8333 29.131 34.6841 27.9652C37.0631 26.9821 39.6923 26.4726 42.3575 26.4783H43.3672C47.5761 26.6683 51.5515 28.1218 54.5323 30.5606C57.513 32.9993 59.2895 36.252 59.5217 39.6957V40.5217Z" fill="black"/>
</g>
<defs>
<filter id="filter0_d_13_3854" x="0" y="0" width="82.6957" height="82.6956" filterUnits="userSpaceOnUse" color-interpolation-filters="sRGB">
<feFlood flood-opacity="0" result="BackgroundImageFix"/>
<feColorMatrix in="SourceAlpha" type="matrix" values="0 0 0 0 0 0 0 0 0 0 0 0 0 0 0 0 0 0 127 0" result="hardAlpha"/>
<feOffset/>
<feGaussianBlur stdDeviation="2.5"/>
<feComposite in2="hardAlpha" operator="out"/>
<feColorMatrix type="matrix" values="0 0 0 0 0 0 0 0 0 0 0 0 0 0 0 0 0 0 0.25 0"/>
<feBlend mode="normal" in2="BackgroundImageFix" result="effect1_dropShadow_13_3854"/>
<feBlend mode="normal" in="SourceGraphic" in2="effect1_dropShadow_13_3854" result="shape"/>
</filter>
</defs>
</svg>
