<svg width="68" height="68" viewBox="0 0 68 68" fill="none" xmlns="http://www.w3.org/2000/svg">
<circle cx="34" cy="34" r="34" fill="#FFE927"/>
<path d="M50.9999 33.2274C51.0064 35.2672 50.424 37.2794 49.2999 39.1002C47.9672 41.282 45.9184 43.1171 43.3829 44.4C40.8475 45.6828 37.9255 46.3628 34.9444 46.3638C32.4513 46.3691 29.992 45.8925 27.7666 44.9729L17 47.9092L20.5889 39.1002C19.4649 37.2794 18.8824 35.2672 18.8889 33.2274C18.89 30.7884 19.7212 28.3977 21.2891 26.3232C22.8571 24.2488 25.1 22.5724 27.7666 21.482C29.992 20.5624 32.4513 20.0858 34.9444 20.0911H35.8889C39.826 20.2688 43.5446 21.6285 46.3328 23.9097C49.1209 26.1909 50.7827 29.2335 50.9999 32.4547V33.2274Z" fill="black"/>
</svg>
