<svg width="145" height="41" viewBox="0 0 145 41" fill="none" xmlns="http://www.w3.org/2000/svg">
<path d="M12.7191 7.03153L6.71119 23.4195L3.24635 22.1493L9.25424 5.7613L12.7191 7.03153Z" fill="white"/>
<path d="M19.996 19.7615L17.978 27.0557L14.4787 26.0876L17.9693 13.4706L21.3043 14.3932L20.6884 16.6193L20.8363 16.6602C21.3186 16.0037 21.9474 15.5527 22.7227 15.3074C23.4995 15.0566 24.3561 15.0607 25.2925 15.3198C26.1687 15.5622 26.8796 15.9652 27.4252 16.5288C27.9708 17.0924 28.3258 17.7802 28.4903 18.592C28.6563 19.3985 28.6037 20.2918 28.3325 21.272L26.11 29.3054L22.6108 28.3374L24.6606 20.9282C24.8797 20.1576 24.8492 19.5006 24.5691 18.9574C24.2905 18.4088 23.8008 18.0375 23.0999 17.8435C22.6289 17.7132 22.1847 17.6994 21.7672 17.802C21.3552 17.9062 20.9941 18.1246 20.6839 18.4574C20.3807 18.7862 20.1514 19.2209 19.996 19.7615Z" fill="white"/>
<path d="M55.3067 21.525C55.314 20.8341 55.0815 20.2713 54.6092 19.8364C54.1368 19.4015 53.4601 19.1356 52.579 19.0387C51.9804 18.9729 51.4656 19.0021 51.0347 19.1262C50.6044 19.2446 50.263 19.4386 50.0104 19.7081C49.7635 19.9782 49.6196 20.2996 49.5786 20.6723C49.5331 20.9817 49.5683 21.26 49.684 21.5071C49.8054 21.7548 49.9839 21.9773 50.2194 22.1747C50.4555 22.3664 50.7334 22.5427 51.053 22.7036C51.3731 22.8588 51.7178 22.9996 52.0869 23.1259L53.6047 23.67C54.3429 23.9226 55.0127 24.2249 55.6142 24.5768C56.2157 24.9288 56.7254 25.3363 57.1432 25.7995C57.561 26.2627 57.8662 26.7879 58.0589 27.3749C58.2572 27.9626 58.3195 28.6182 58.2457 29.3418C58.1233 30.403 57.751 31.2937 57.1288 32.0142C56.5128 32.7295 55.6786 33.2466 54.6261 33.5653C53.5799 33.879 52.3508 33.9582 50.9388 33.803C49.5382 33.6491 48.3419 33.3003 47.3499 32.7569C46.3635 32.214 45.6257 31.4898 45.1365 30.5844C44.6535 29.6739 44.4666 28.593 44.5755 27.3417L48.1252 27.7319C48.1008 28.318 48.214 28.822 48.4648 29.244C48.7219 29.661 49.0881 29.9956 49.5634 30.2479C50.0449 30.4952 50.602 30.6536 51.2345 30.7231C51.8558 30.7914 52.4051 30.7604 52.8824 30.6299C53.3654 30.5001 53.7517 30.2882 54.0412 29.9942C54.3308 29.7002 54.4985 29.3443 54.5445 28.9263C54.5873 28.5366 54.5075 28.1963 54.3052 27.9054C54.1084 27.6152 53.8 27.3526 53.38 27.1178C52.9656 26.8836 52.4505 26.6555 51.8347 26.4335L49.9977 25.7514C48.574 25.2348 47.4802 24.5515 46.7162 23.7016C45.9523 22.8516 45.6436 21.786 45.7901 20.5045C45.9 19.4534 46.2804 18.5664 46.9315 17.8434C47.5882 17.1211 48.4378 16.5943 49.4803 16.263C50.5227 15.9318 51.6765 15.8357 52.9416 15.9748C54.2293 16.1163 55.329 16.4601 56.2407 17.0062C57.158 17.5529 57.8418 18.2483 58.2921 19.0923C58.7423 19.9363 58.9191 20.876 58.8224 21.9115L55.3067 21.525Z" fill="white"/>
<path d="M65.2773 34.6719L65.3662 17.2175L77.1274 17.2774L77.1119 20.32L69.041 20.2789L69.0198 24.4379L76.4857 24.476L76.4702 27.5185L69.0044 27.4805L68.9831 31.6481L77.0881 31.6894L77.0726 34.7319L65.2773 34.6719Z" fill="white"/>
<path d="M100.169 24.0291C100.372 25.9216 100.186 27.5702 99.6113 28.9748C99.042 30.3788 98.1792 31.4972 97.0228 32.3299C95.8715 33.1564 94.5304 33.6518 92.9994 33.8162C91.4571 33.9818 90.0354 33.7801 88.7343 33.2112C87.4332 32.6423 86.3555 31.7322 85.5011 30.481C84.6468 29.2298 84.1183 27.6608 83.9158 25.7739C83.7126 23.8814 83.8957 22.2331 84.4649 20.8291C85.0342 19.4251 85.8945 18.3098 87.0459 17.4834C88.1966 16.6512 89.5431 16.1524 91.0853 15.9868C92.6163 15.8225 94.0324 16.0247 95.3335 16.5936C96.6396 17.1563 97.7199 18.0632 98.5742 19.3144C99.4342 20.565 99.9658 22.1365 100.169 24.0291ZM96.4489 24.4284C96.3173 23.2025 96.0227 22.1884 95.5651 21.3861C95.1132 20.5831 94.5334 19.9996 93.8257 19.6356C93.118 19.2716 92.3207 19.1371 91.4338 19.2324C90.5468 19.3276 89.7962 19.6282 89.1819 20.1341C88.5676 20.6401 88.1221 21.3337 87.8452 22.2148C87.574 23.0954 87.5043 24.1486 87.6359 25.3746C87.7675 26.6005 88.0592 27.6149 88.5112 28.4178C88.9687 29.2202 89.5514 29.8033 90.259 30.1674C90.9667 30.5314 91.764 30.6658 92.651 30.5706C93.5379 30.4754 94.2885 30.1748 94.9028 29.6689C95.5171 29.1629 95.9598 28.4696 96.231 27.5891C96.5078 26.7079 96.5805 25.6544 96.4489 24.4284Z" fill="white"/>
<path d="M115.338 11.9253L118.934 11.0961L121.481 22.1415C121.767 23.3817 121.721 24.5351 121.343 25.6019C120.97 26.6673 120.315 27.5822 119.378 28.3465C118.439 29.1052 117.267 29.6467 115.86 29.971C114.449 30.2965 113.155 30.3238 111.978 30.0527C110.801 29.7761 109.811 29.2404 109.01 28.4456C108.209 27.6507 107.665 26.6332 107.379 25.3931L104.832 14.3477L108.428 13.5185L110.904 24.2566C111.054 24.9044 111.328 25.4476 111.726 25.8864C112.13 26.3238 112.626 26.6265 113.212 26.7944C113.799 26.9623 114.439 26.9664 115.131 26.8068C115.828 26.646 116.401 26.3622 116.85 25.9556C117.304 25.5477 117.614 25.0593 117.78 24.4904C117.952 23.9202 117.963 23.3112 117.814 22.6634L115.338 11.9253Z" fill="white"/>
<path d="M130.821 25.7077L125.106 9.2152L128.593 8.00693L133.312 21.6245L140.382 19.1745L141.379 22.0494L130.821 25.7077Z" fill="white"/>
</svg>
