<svg width="20" height="20" viewBox="0 0 20 20" fill="none" xmlns="http://www.w3.org/2000/svg">
<g filter="url(#filter0_d_13_2169)">
<path d="M14.8149 13.3333C15.3774 13.3333 15.8334 12.8773 15.8334 12.3148V5.18514C15.8334 4.62263 15.3774 4.16663 14.8149 4.16663H7.68527C7.12275 4.16663 6.66675 4.62263 6.66675 5.18514" stroke="white" stroke-linecap="round" stroke-linejoin="round"/>
</g>
<g filter="url(#filter1_d_13_2169)">
<path d="M12.3149 6.66669H5.18527C4.62275 6.66669 4.16675 7.12269 4.16675 7.68521V14.8148C4.16675 15.3773 4.62275 15.8334 5.18527 15.8334H12.3149C12.8774 15.8334 13.3334 15.3773 13.3334 14.8148V7.68521C13.3334 7.12269 12.8774 6.66669 12.3149 6.66669Z" fill="white"/>
<path d="M12.3149 6.66669H5.18527C4.62275 6.66669 4.16675 7.12269 4.16675 7.68521V14.8148C4.16675 15.3773 4.62275 15.8334 5.18527 15.8334H12.3149C12.8774 15.8334 13.3334 15.3773 13.3334 14.8148V7.68521C13.3334 7.12269 12.8774 6.66669 12.3149 6.66669Z" stroke="white" stroke-linecap="round" stroke-linejoin="round"/>
</g>
<defs>
<filter id="filter0_d_13_2169" x="4.16675" y="1.66663" width="14.1667" height="14.1667" filterUnits="userSpaceOnUse" color-interpolation-filters="sRGB">
<feFlood flood-opacity="0" result="BackgroundImageFix"/>
<feColorMatrix in="SourceAlpha" type="matrix" values="0 0 0 0 0 0 0 0 0 0 0 0 0 0 0 0 0 0 127 0" result="hardAlpha"/>
<feOffset/>
<feGaussianBlur stdDeviation="1"/>
<feComposite in2="hardAlpha" operator="out"/>
<feColorMatrix type="matrix" values="0 0 0 0 0 0 0 0 0 0 0 0 0 0 0 0 0 0 0.5 0"/>
<feBlend mode="normal" in2="BackgroundImageFix" result="effect1_dropShadow_13_2169"/>
<feBlend mode="normal" in="SourceGraphic" in2="effect1_dropShadow_13_2169" result="shape"/>
</filter>
<filter id="filter1_d_13_2169" x="1.66675" y="4.16669" width="14.1667" height="14.1667" filterUnits="userSpaceOnUse" color-interpolation-filters="sRGB">
<feFlood flood-opacity="0" result="BackgroundImageFix"/>
<feColorMatrix in="SourceAlpha" type="matrix" values="0 0 0 0 0 0 0 0 0 0 0 0 0 0 0 0 0 0 127 0" result="hardAlpha"/>
<feOffset/>
<feGaussianBlur stdDeviation="1"/>
<feComposite in2="hardAlpha" operator="out"/>
<feColorMatrix type="matrix" values="0 0 0 0 0 0 0 0 0 0 0 0 0 0 0 0 0 0 0.5 0"/>
<feBlend mode="normal" in2="BackgroundImageFix" result="effect1_dropShadow_13_2169"/>
<feBlend mode="normal" in="SourceGraphic" in2="effect1_dropShadow_13_2169" result="shape"/>
</filter>
</defs>
</svg>
