<svg width="24" height="24" viewBox="0 0 24 24" fill="none" xmlns="http://www.w3.org/2000/svg">
<path d="M4.22222 23C3.61111 23 3.08778 22.7844 2.65222 22.3532C2.21667 21.922 1.99926 21.4043 2 20.8V5.4C2 4.795 2.21778 4.2769 2.65334 3.8457C3.08889 3.4145 3.61185 3.19927 4.22222 3.2H8.86111C9.06482 2.55833 9.46296 2.03107 10.0556 1.6182C10.6481 1.20534 11.2963 0.999269 12 1C12.7407 1 13.403 1.20644 13.9867 1.6193C14.5704 2.03217 14.9637 2.55907 15.1667 3.2H19.7778C20.3889 3.2 20.9122 3.4156 21.3478 3.8468C21.7833 4.278 22.0007 4.79573 22 5.4V20.8C22 21.405 21.7822 21.9231 21.3467 22.3543C20.9111 22.7855 20.3881 23.0007 19.7778 23H4.22222ZM4.22222 20.8H19.7778V5.4H17.5556V7.6C17.5556 7.91167 17.4489 8.1731 17.2356 8.3843C17.0222 8.5955 16.7585 8.70073 16.4444 8.7H7.55556C7.24074 8.7 6.97667 8.5944 6.76333 8.3832C6.55 8.172 6.44371 7.91093 6.44445 7.6V5.4H4.22222V20.8ZM12 5.4C12.3148 5.4 12.5789 5.2944 12.7922 5.0832C13.0056 4.872 13.1119 4.61093 13.1111 4.3C13.1111 3.98833 13.0044 3.7269 12.7911 3.5157C12.5778 3.3045 12.3141 3.19927 12 3.2C11.6852 3.2 11.4211 3.3056 11.2078 3.5168C10.9944 3.728 10.8881 3.98907 10.8889 4.3C10.8889 4.61167 10.9956 4.8731 11.2089 5.0843C11.4222 5.2955 11.6859 5.40073 12 5.4Z" fill="#767676"/>
</svg>
