<svg width="24" height="24" viewBox="0 0 24 24" fill="none" xmlns="http://www.w3.org/2000/svg">
<path d="M21.75 12.125C21.75 12.4234 21.6315 12.7095 21.4205 12.9205C21.2095 13.1315 20.9234 13.25 20.625 13.25H4.125C3.82663 13.25 3.54048 13.1315 3.3295 12.9205C3.11853 12.7095 3 12.4234 3 12.125C3 11.8266 3.11853 11.5405 3.3295 11.3295C3.54048 11.1185 3.82663 11 4.125 11H20.625C20.9234 11 21.2095 11.1185 21.4205 11.3295C21.6315 11.5405 21.75 11.8266 21.75 12.125ZM4.125 7.25H20.625C20.9234 7.25 21.2095 7.13147 21.4205 6.9205C21.6315 6.70952 21.75 6.42337 21.75 6.125C21.75 5.82663 21.6315 5.54048 21.4205 5.3295C21.2095 5.11853 20.9234 5 20.625 5H4.125C3.82663 5 3.54048 5.11853 3.3295 5.3295C3.11853 5.54048 3 5.82663 3 6.125C3 6.42337 3.11853 6.70952 3.3295 6.9205C3.54048 7.13147 3.82663 7.25 4.125 7.25ZM20.625 17H4.125C3.82663 17 3.54048 17.1185 3.3295 17.3295C3.11853 17.5405 3 17.8266 3 18.125C3 18.4234 3.11853 18.7095 3.3295 18.9205C3.54048 19.1315 3.82663 19.25 4.125 19.25H20.625C20.9234 19.25 21.2095 19.1315 21.4205 18.9205C21.6315 18.7095 21.75 18.4234 21.75 18.125C21.75 17.8266 21.6315 17.5405 21.4205 17.3295C21.2095 17.1185 20.9234 17 20.625 17Z" fill="#767676"/>
</svg>
