<svg width="24" height="24" viewBox="0 0 24 24" fill="none" xmlns="http://www.w3.org/2000/svg">
<path d="M11.9287 5.29153V2.50153C11.9287 2.05153 11.3887 1.83153 11.0787 2.15153L7.27874 5.94153C7.07874 6.14153 7.07874 6.45153 7.27874 6.65153L11.0687 10.4415C11.3887 10.7515 11.9287 10.5315 11.9287 10.0815V7.29153C15.6587 7.29153 18.6087 10.7115 17.7887 14.5815C17.3187 16.8515 15.4787 18.6815 13.2187 19.1515C9.64874 19.9015 6.46874 17.4515 5.98874 14.1415C5.95309 13.9065 5.83486 13.6918 5.65527 13.5361C5.47568 13.3803 5.24646 13.2936 5.00874 13.2915C4.40874 13.2915 3.92874 13.8215 4.00874 14.4215C4.62874 18.8115 8.80874 22.0615 13.5387 21.1415C16.6587 20.5315 19.1687 18.0215 19.7787 14.9015C20.7687 9.77153 16.8687 5.29153 11.9287 5.29153Z" fill="#767676"/>
</svg>
