<svg width="107" height="28" viewBox="0 0 107 28" fill="none" xmlns="http://www.w3.org/2000/svg">
<path d="M52.7376 18.04C52.7376 18.88 52.551 19.6133 52.1776 20.24C51.8043 20.8667 51.2376 21.3533 50.4776 21.7C49.731 22.0333 48.7843 22.2 47.6376 22.2C47.1043 22.2 46.611 22.1667 46.1576 22.1C45.7043 22.0333 45.2776 21.94 44.8776 21.82C44.4776 21.6867 44.0776 21.5267 43.6776 21.34V18.52C44.3576 18.8133 45.051 19.0867 45.7576 19.34C46.4776 19.58 47.1576 19.7 47.7976 19.7C48.211 19.7 48.5443 19.6333 48.7976 19.5C49.051 19.3667 49.2376 19.1867 49.3576 18.96C49.4776 18.7333 49.5376 18.4733 49.5376 18.18C49.5376 17.82 49.4376 17.5133 49.2376 17.26C49.051 17.0067 48.771 16.7733 48.3976 16.56C48.0243 16.3333 47.5643 16.1067 47.0176 15.88C46.6176 15.7067 46.2243 15.5067 45.8376 15.28C45.451 15.0533 45.1043 14.78 44.7976 14.46C44.491 14.1267 44.2443 13.7267 44.0576 13.26C43.8843 12.7933 43.7976 12.2333 43.7976 11.58C43.7976 10.7267 43.9976 10 44.3976 9.4C44.7976 8.78667 45.3576 8.32 46.0776 8C46.7976 7.68 47.6376 7.52 48.5976 7.52C49.3843 7.52 50.111 7.60667 50.7776 7.78C51.4576 7.95333 52.1043 8.2 52.7176 8.52L51.6976 10.88C51.111 10.6133 50.551 10.4067 50.0176 10.26C49.4976 10.1133 48.991 10.04 48.4976 10.04C48.1643 10.04 47.8843 10.1 47.6576 10.22C47.431 10.34 47.2576 10.5067 47.1376 10.72C47.031 10.9333 46.9776 11.1867 46.9776 11.48C46.9776 11.8133 47.0643 12.1 47.2376 12.34C47.4243 12.5667 47.711 12.7933 48.0976 13.02C48.4843 13.2333 48.9776 13.4933 49.5776 13.8C50.2443 14.1333 50.811 14.4867 51.2776 14.86C51.7576 15.22 52.1176 15.6533 52.3576 16.16C52.611 16.6667 52.7376 17.2933 52.7376 18.04ZM66.2636 22H63.0036V15.84H58.2436V22H55.0036V7.72H58.2436V13.32H63.0036V7.72H66.2636V22ZM81.7776 14.84C81.7776 15.9467 81.651 16.9533 81.3976 17.86C81.1443 18.7533 80.7576 19.5267 80.2376 20.18C79.7176 20.8333 79.0443 21.3333 78.2176 21.68C77.4043 22.0267 76.4376 22.2 75.3176 22.2C74.211 22.2 73.251 22.0267 72.4376 21.68C71.6243 21.32 70.951 20.82 70.4176 20.18C69.8976 19.5267 69.5043 18.7467 69.2376 17.84C68.9843 16.9333 68.8576 15.9267 68.8576 14.82C68.8576 13.34 69.0843 12.0533 69.5376 10.96C70.0043 9.86667 70.7176 9.02 71.6776 8.42C72.6376 7.80667 73.8576 7.5 75.3376 7.5C76.831 7.5 78.051 7.80667 78.9976 8.42C79.9443 9.02 80.6443 9.87333 81.0976 10.98C81.551 12.0733 81.7776 13.36 81.7776 14.84ZM72.2576 14.84C72.2576 15.84 72.3576 16.7 72.5576 17.42C72.771 18.14 73.1043 18.6933 73.5576 19.08C74.011 19.4667 74.5976 19.66 75.3176 19.66C76.051 19.66 76.6376 19.4667 77.0776 19.08C77.531 18.6933 77.8576 18.14 78.0576 17.42C78.271 16.7 78.3776 15.84 78.3776 14.84C78.3776 13.3333 78.1376 12.1533 77.6576 11.3C77.191 10.4467 76.4176 10.02 75.3376 10.02C74.6043 10.02 74.011 10.2133 73.5576 10.6C73.1043 10.9867 72.771 11.54 72.5576 12.26C72.3576 12.98 72.2576 13.84 72.2576 14.84ZM101.362 7.72L97.9823 22H94.2223L92.6423 14.5C92.6157 14.3533 92.5757 14.1333 92.5223 13.84C92.469 13.5467 92.409 13.2267 92.3423 12.88C92.289 12.5333 92.2357 12.2067 92.1823 11.9C92.1423 11.58 92.109 11.3333 92.0823 11.16C92.069 11.3333 92.0357 11.58 91.9823 11.9C91.929 12.2067 91.869 12.5333 91.8023 12.88C91.749 13.2133 91.6957 13.5333 91.6423 13.84C91.589 14.1333 91.5423 14.36 91.5023 14.52L89.9223 22H86.1623L82.7823 7.72H85.9423L87.5223 15.52C87.5623 15.7467 87.6157 16.0267 87.6823 16.36C87.749 16.68 87.8157 17.02 87.8823 17.38C87.949 17.7267 88.009 18.0667 88.0623 18.4C88.1157 18.7333 88.1557 19.02 88.1823 19.26C88.2223 19.0067 88.269 18.72 88.3223 18.4C88.389 18.0667 88.449 17.7267 88.5023 17.38C88.569 17.0333 88.629 16.7133 88.6823 16.42C88.749 16.1133 88.8023 15.8667 88.8423 15.68L90.5823 7.72H93.5823L95.2823 15.72C95.3223 15.8933 95.369 16.1333 95.4223 16.44C95.489 16.7333 95.5557 17.0533 95.6223 17.4C95.689 17.7467 95.749 18.0867 95.8023 18.42C95.8557 18.74 95.9023 19.02 95.9423 19.26C95.9823 18.9267 96.0423 18.5333 96.1223 18.08C96.2023 17.6133 96.289 17.1467 96.3823 16.68C96.4757 16.2133 96.5557 15.8267 96.6223 15.52L98.2023 7.72H101.362Z" fill="#961F1F"/>
<path d="M2 16.3342C2 16.3342 3.4555 2 16.555 2C29.6546 2 31.1101 16.3342 31.1101 16.3342" stroke="#961F1F" stroke-width="4" stroke-linecap="round"/>
<path d="M12.1611 12.132V17.5118" stroke="#961F1F" stroke-width="4" stroke-linecap="round"/>
<path d="M6.36646 23.8782C14.6863 26.7209 19.1378 26.6936 26.7435 23.8782" stroke="#961F1F" stroke-width="4" stroke-linecap="round"/>
<path d="M20.949 12.132V17.5118" stroke="#961F1F" stroke-width="4" stroke-linecap="round"/>
</svg>
