<svg width="111" height="111" viewBox="0 0 111 111" fill="none" xmlns="http://www.w3.org/2000/svg">
<circle cx="55.5" cy="55.5" r="55.5" fill="#DBDBDB"/>
<path d="M22.6282 60.6157C22.6282 60.6157 25.9137 27.5818 55.483 27.5818C85.0524 27.5818 88.3379 60.6157 88.3379 60.6157" stroke="white" stroke-width="10" stroke-linecap="round"/>
<path d="M45.5647 50.9315V63.3295" stroke="white" stroke-width="10" stroke-linecap="round"/>
<path d="M32.4846 78.0014C51.2649 84.5525 61.3131 84.4897 78.4814 78.0014" stroke="white" stroke-width="10" stroke-linecap="round"/>
<path d="M65.4016 50.9315V63.3295" stroke="white" stroke-width="10" stroke-linecap="round"/>
<path d="M61.1689 17.6046L55.6106 25.3009" stroke="white" stroke-width="10" stroke-linecap="round"/>
<path d="M55.5828 17V26.4936" stroke="white" stroke-width="10" stroke-linecap="round"/>
<path d="M67.4905 19.1163L61.9321 26.8126" stroke="white" stroke-width="10" stroke-linecap="round"/>
<path d="M78.3743 24.5584L72.8159 32.2547" stroke="white" stroke-width="10" stroke-linecap="round"/>
<path d="M87.3701 33.7919L80.6767 39.0706" stroke="white" stroke-width="10" stroke-linecap="round"/>
<path d="M23.8374 32.4192L31.0935 36.6519" stroke="white" stroke-width="10" stroke-linecap="round"/>
<path d="M32.9077 23.349L39.5591 30.0005" stroke="white" stroke-width="10" stroke-linecap="round"/>
<path d="M72.9321 21.2327L67.3737 28.9289" stroke="white" stroke-width="10" stroke-linecap="round"/>
<path d="M82.6069 28.4888L77.3509 35.1402" stroke="white" stroke-width="10" stroke-linecap="round"/>
<path d="M90.8838 39.698L82.7932 42.6987" stroke="white" stroke-width="10" stroke-linecap="round"/>
<path d="M93 45.722L85.5141 48.443" stroke="white" stroke-width="10" stroke-linecap="round"/>
<path d="M38.0474 20.9304L43.6058 28.6266" stroke="white" stroke-width="10" stroke-linecap="round"/>
<path d="M28.6748 26.9771L34.2332 34.6733" stroke="white" stroke-width="10" stroke-linecap="round"/>
<path d="M20.8142 39.0706L27.4656 43.001" stroke="white" stroke-width="10" stroke-linecap="round"/>
<path d="M19 45.1173L24.7444 48.1407" stroke="white" stroke-width="10" stroke-linecap="round"/>
<path d="M49.8384 17.5161L55.3968 26.0675" stroke="white" stroke-width="10" stroke-linecap="round"/>
<path d="M44.3962 18.814L49.9546 27.3654" stroke="white" stroke-width="10" stroke-linecap="round"/>
</svg>
