<svg width="111" height="111" viewBox="0 0 111 111" fill="none" xmlns="http://www.w3.org/2000/svg">
<circle cx="55.5" cy="55.5" r="55.5" fill="#DBDBDB"/>
<path d="M23.1072 60.8223C23.1072 60.8223 26.3782 27.9333 55.8179 27.9333C85.2575 27.9333 88.5285 60.8223 88.5285 60.8223" stroke="white" stroke-width="10" stroke-linecap="round"/>
<path d="M45.9429 51.1805V63.5242" stroke="white" stroke-width="10" stroke-linecap="round"/>
<path d="M32.9204 78.1317C51.6182 84.6541 61.6224 84.5914 78.7154 78.1317" stroke="white" stroke-width="10" stroke-linecap="round"/>
<path d="M65.6926 51.1805V63.5242" stroke="white" stroke-width="10" stroke-linecap="round"/>
<path d="M55.9172 18L55.9172 26.7293" stroke="white" stroke-width="10" stroke-linecap="round"/>
<path d="M69.5342 20.4797L65.8948 29.2028" stroke="white" stroke-width="10" stroke-linecap="round"/>
<path d="M81.6189 27.0303L76.0849 34.6928" stroke="white" stroke-width="10" stroke-linecap="round"/>
<path d="M42.6094 20.305L45.2599 29.3776" stroke="white" stroke-width="10" stroke-linecap="round"/>
<path d="M30.0305 26.7293L35.5645 34.3918" stroke="white" stroke-width="10" stroke-linecap="round"/>
<path d="M21 38.4687L27.3212 41.7798" stroke="white" stroke-width="10" stroke-linecap="round"/>
<path d="M83.9111 41.7798L90.2323 38.4687" stroke="white" stroke-width="10" stroke-linecap="round"/>
</svg>
