<svg width="68" height="68" viewBox="0 0 68 68" fill="none" xmlns="http://www.w3.org/2000/svg">
<circle cx="34" cy="34" r="34" fill="#F2F1F1"/>
<path d="M47.9091 34.3199C47.9091 33.3843 47.8262 32.4961 47.6841 31.6316H34.302V36.9726H41.9641C41.6207 38.7253 40.6141 40.2056 39.1219 41.2122V44.765H43.6931C46.3696 42.2899 47.9091 38.6424 47.9091 34.3199Z" fill="#4285F4"/>
<path d="M34.302 48.2113C38.139 48.2113 41.3484 46.9323 43.6932 44.7651L39.122 41.2123C37.843 42.065 36.2205 42.5861 34.302 42.5861C30.5953 42.5861 27.457 40.0873 26.332 36.7122H21.6187V40.3715C23.9516 45.0138 28.7479 48.2113 34.302 48.2113Z" fill="#34A853"/>
<path d="M26.332 36.7121C26.0359 35.8595 25.882 34.9476 25.882 34.0002C25.882 33.0528 26.0477 32.1409 26.332 31.2883V27.6289H21.6186C20.6475 29.5474 20.0909 31.7027 20.0909 34.0002C20.0909 36.2977 20.6475 38.453 21.6186 40.3715L26.332 36.7121Z" fill="#FBBC05"/>
<path d="M34.302 25.4143C36.3982 25.4143 38.2693 26.1367 39.7496 27.5459L43.7998 23.4958C41.3484 21.1983 38.139 19.7891 34.302 19.7891C28.7479 19.7891 23.9516 22.9866 21.6187 27.6288L26.332 31.2882C27.457 27.9131 30.5953 25.4143 34.302 25.4143Z" fill="#EA4335"/>
</svg>
