<svg width="24" height="24" viewBox="0 0 24 24" fill="none" xmlns="http://www.w3.org/2000/svg">
<g filter="url(#filter0_b_401_390)">
<path d="M16.8 8C18.4569 8 19.8 6.65685 19.8 5C19.8 3.34315 18.4569 2 16.8 2C15.1432 2 13.8 3.34315 13.8 5C13.8 6.65685 15.1432 8 16.8 8Z" stroke="white" stroke-width="1.5" stroke-linecap="round" stroke-linejoin="round"/>
<path d="M4.80005 15C6.4569 15 7.80005 13.6569 7.80005 12C7.80005 10.3431 6.4569 9 4.80005 9C3.14319 9 1.80005 10.3431 1.80005 12C1.80005 13.6569 3.14319 15 4.80005 15Z" stroke="white" stroke-width="1.5" stroke-linecap="round" stroke-linejoin="round"/>
<path d="M16.8 22C18.4569 22 19.8 20.6569 19.8 19C19.8 17.3431 18.4569 16 16.8 16C15.1432 16 13.8 17.3431 13.8 19C13.8 20.6569 15.1432 22 16.8 22Z" stroke="white" stroke-width="1.5" stroke-linecap="round" stroke-linejoin="round"/>
<path d="M7.39001 13.51L14.22 17.49" stroke="white" stroke-width="1.5" stroke-linecap="round" stroke-linejoin="round"/>
<path d="M14.21 6.51001L7.39001 10.49" stroke="white" stroke-width="1.5" stroke-linecap="round" stroke-linejoin="round"/>
</g>
<defs>
<filter id="filter0_b_401_390" x="-10" y="-10" width="44" height="44" filterUnits="userSpaceOnUse" color-interpolation-filters="sRGB">
<feFlood flood-opacity="0" result="BackgroundImageFix"/>
<feGaussianBlur in="BackgroundImageFix" stdDeviation="5"/>
<feComposite in2="SourceAlpha" operator="in" result="effect1_backgroundBlur_401_390"/>
<feBlend mode="normal" in="SourceGraphic" in2="effect1_backgroundBlur_401_390" result="shape"/>
</filter>
</defs>
</svg>
