<svg width="248" height="213" viewBox="0 0 248 213" fill="none" xmlns="http://www.w3.org/2000/svg">
<path d="M15 124.262C15 124.262 25.867 15 123.67 15C221.472 15 232.339 124.262 232.339 124.262" stroke="white" stroke-width="30" stroke-linecap="round"/>
<path d="M90.8638 92.2307V133.238" stroke="white" stroke-width="30" stroke-linecap="round"/>
<path d="M47.6008 181.766C109.718 203.435 142.953 203.227 199.738 181.766" stroke="white" stroke-width="30" stroke-linecap="round"/>
<path d="M64.7191 178.032L58.7112 194.42L55.2463 193.149L61.2542 176.761L64.7191 178.032Z" fill="#961F1F"/>
<path d="M71.996 190.761L69.978 198.056L66.4787 197.088L69.9693 184.471L73.3043 185.393L72.6884 187.619L72.8363 187.66C73.3186 187.004 73.9474 186.553 74.7227 186.307C75.4995 186.057 76.3561 186.061 77.2925 186.32C78.1687 186.562 78.8796 186.965 79.4252 187.529C79.9708 188.092 80.3258 188.78 80.4903 189.592C80.6563 190.398 80.6037 191.292 80.3325 192.272L78.11 200.305L74.6108 199.337L76.6606 191.928C76.8797 191.158 76.8492 190.501 76.5691 189.957C76.2905 189.409 75.8008 189.037 75.0999 188.844C74.6289 188.713 74.1847 188.699 73.7672 188.802C73.3552 188.906 72.9941 189.125 72.6839 189.457C72.3807 189.786 72.1514 190.221 71.996 190.761Z" fill="#961F1F"/>
<path d="M107.307 192.525C107.314 191.834 107.082 191.271 106.609 190.836C106.137 190.401 105.46 190.136 104.579 190.039C103.98 189.973 103.466 190.002 103.035 190.126C102.604 190.245 102.263 190.439 102.01 190.708C101.764 190.978 101.62 191.3 101.579 191.672C101.533 191.982 101.568 192.26 101.684 192.507C101.805 192.755 101.984 192.977 102.219 193.175C102.456 193.366 102.733 193.543 103.053 193.704C103.373 193.859 103.718 194 104.087 194.126L105.605 194.67C106.343 194.923 107.013 195.225 107.614 195.577C108.216 195.929 108.725 196.336 109.143 196.8C109.561 197.263 109.866 197.788 110.059 198.375C110.257 198.963 110.319 199.618 110.246 200.342C110.123 201.403 109.751 202.294 109.129 203.014C108.513 203.73 107.679 204.247 106.626 204.565C105.58 204.879 104.351 204.958 102.939 204.803C101.538 204.649 100.342 204.3 99.3499 203.757C98.3635 203.214 97.6257 202.49 97.1365 201.584C96.6535 200.674 96.4666 199.593 96.5755 198.342L100.125 198.732C100.101 199.318 100.214 199.822 100.465 200.244C100.722 200.661 101.088 200.996 101.563 201.248C102.045 201.495 102.602 201.654 103.235 201.723C103.856 201.791 104.405 201.76 104.882 201.63C105.365 201.5 105.752 201.288 106.041 200.994C106.331 200.7 106.499 200.344 106.544 199.926C106.587 199.537 106.508 199.196 106.305 198.905C106.108 198.615 105.8 198.353 105.38 198.118C104.966 197.884 104.451 197.656 103.835 197.433L101.998 196.751C100.574 196.235 99.4802 195.552 98.7162 194.702C97.9523 193.852 97.6436 192.786 97.7901 191.505C97.9 190.453 98.2804 189.566 98.9315 188.843C99.5882 188.121 100.438 187.594 101.48 187.263C102.523 186.932 103.676 186.836 104.942 186.975C106.229 187.116 107.329 187.46 108.241 188.006C109.158 188.553 109.842 189.248 110.292 190.092C110.742 190.936 110.919 191.876 110.822 192.911L107.307 192.525Z" fill="#961F1F"/>
<path d="M117.277 205.672L117.366 188.218L129.127 188.277L129.112 191.32L121.041 191.279L121.02 195.438L128.486 195.476L128.47 198.519L121.004 198.481L120.983 202.648L129.088 202.689L129.073 205.732L117.277 205.672Z" fill="#961F1F"/>
<path d="M152.169 195.029C152.372 196.922 152.186 198.57 151.611 199.975C151.042 201.379 150.179 202.497 149.023 203.33C147.872 204.156 146.53 204.652 144.999 204.816C143.457 204.982 142.035 204.78 140.734 204.211C139.433 203.642 138.355 202.732 137.501 201.481C136.647 200.23 136.118 198.661 135.916 196.774C135.713 194.881 135.896 193.233 136.465 191.829C137.034 190.425 137.895 189.31 139.046 188.483C140.197 187.651 141.543 187.152 143.085 186.987C144.616 186.822 146.032 187.025 147.333 187.594C148.64 188.156 149.72 189.063 150.574 190.314C151.434 191.565 151.966 193.137 152.169 195.029ZM148.449 195.428C148.317 194.203 148.023 193.188 147.565 192.386C147.113 191.583 146.533 191 145.826 190.636C145.118 190.272 144.321 190.137 143.434 190.232C142.547 190.328 141.796 190.628 141.182 191.134C140.568 191.64 140.122 192.334 139.845 193.215C139.574 194.095 139.504 195.149 139.636 196.375C139.767 197.6 140.059 198.615 140.511 199.418C140.969 200.22 141.551 200.803 142.259 201.167C142.967 201.531 143.764 201.666 144.651 201.571C145.538 201.475 146.289 201.175 146.903 200.669C147.517 200.163 147.96 199.47 148.231 198.589C148.508 197.708 148.58 196.654 148.449 195.428Z" fill="#961F1F"/>
<path d="M167.338 182.925L170.934 182.096L173.481 193.142C173.767 194.382 173.721 195.535 173.343 196.602C172.97 197.667 172.315 198.582 171.378 199.346C170.439 200.105 169.267 200.647 167.86 200.971C166.449 201.297 165.155 201.324 163.978 201.053C162.801 200.776 161.811 200.24 161.01 199.446C160.209 198.651 159.665 197.633 159.379 196.393L156.832 185.348L160.428 184.518L162.904 195.257C163.054 195.904 163.328 196.448 163.726 196.886C164.13 197.324 164.626 197.626 165.212 197.794C165.799 197.962 166.439 197.966 167.131 197.807C167.828 197.646 168.401 197.362 168.85 196.956C169.304 196.548 169.614 196.059 169.78 195.49C169.952 194.92 169.963 194.311 169.814 193.663L167.338 182.925Z" fill="#961F1F"/>
<path d="M182.821 196.708L177.106 180.215L180.593 179.007L185.312 192.624L192.382 190.174L193.379 193.049L182.821 196.708Z" fill="#961F1F"/>
<path d="M156.476 92.2307V133.238" stroke="white" stroke-width="30" stroke-linecap="round"/>
</svg>
