<svg width="111" height="111" viewBox="0 0 111 111" fill="none" xmlns="http://www.w3.org/2000/svg">
<circle cx="55.5" cy="55.5" r="55.5" fill="#DBDBDB"/>
<path d="M23 60.8491C23 60.8491 26.2671 28 55.6711 28C85.075 28 88.3422 60.8491 88.3422 60.8491" stroke="white" stroke-width="10" stroke-linecap="round"/>
<path d="M23 60.9749C23 60.9749 25.6118 34.42 47.2248 28.9206M88 60.9749C88 60.9749 85.7131 37.7235 67.7112 30.2291M47.2248 28.9206C49.7213 28.2854 52.4712 27.9311 55.5 27.9311C56.6707 27.9311 57.7997 27.984 58.8886 28.0856M47.2248 28.9206C43.0378 32.3711 41.692 40.7842 49.4678 42.4476M58.8886 28.0856C55.2 31.1592 50.2155 34.5845 55.5 41.2379M58.8886 28.0856C62.1841 28.3932 65.1115 29.1469 67.7112 30.2291M67.7112 30.2291C64.3217 33.4451 58.8886 33.0723 62.0288 41.2379" stroke="white" stroke-width="5" stroke-linecap="round"/>
<path d="M45.6887 51.2878V63.6895" stroke="white" stroke-width="10" stroke-linecap="round"/>
<path d="M32.75 78.3658C51.3274 84.9188 61.2671 84.8559 78.25 78.3658" stroke="white" stroke-width="10" stroke-linecap="round"/>
<path d="M65.3115 51.2878V63.6895" stroke="white" stroke-width="10" stroke-linecap="round"/>
</svg>
