<svg width="111" height="111" viewBox="0 0 111 111" fill="none" xmlns="http://www.w3.org/2000/svg">
<circle cx="55.5" cy="55.5" r="55.5" fill="#DBDBDB"/>
<path d="M22 57.8491C22 57.8491 25.2671 25 54.6711 25C84.075 25 87.3422 57.8491 87.3422 57.8491" stroke="white" stroke-width="8" stroke-linecap="round"/>
<path d="M44.8081 48.2191V60.5478" stroke="white" stroke-width="8" stroke-linecap="round"/>
<path d="M43 80C52.3908 78.6602 57.4152 78.6731 66 80" stroke="white" stroke-width="8" stroke-linecap="round"/>
<path d="M64.5339 48.2191V60.5478" stroke="white" stroke-width="8" stroke-linecap="round"/>
<path d="M30.0286 64C29.9203 65 30.0611 67 31.4904 67C32.9197 67 33.1145 65 32.9521 64" stroke="white" stroke-linecap="round"/>
<path d="M32.0286 56C31.9203 57 32.0611 59 33.4904 59C34.9197 59 35.1145 57 34.9521 56" stroke="white" stroke-linecap="round"/>
</svg>
